<svg width="40" height="40" viewBox="0 0 40 40" fill="none" xmlns="http://www.w3.org/2000/svg">
<path d="M39.5423 0.457676C38.9321 -0.152559 37.9428 -0.152559 37.3326 0.457676L32.9939 4.79642C29.3737 1.69455 24.8094 1.95391e-05 20 1.95391e-05C14.6578 1.95391e-05 9.6354 2.08033 5.85783 5.85783C2.08025 9.63533 1.95391e-05 14.6578 1.95391e-05 20C1.95391e-05 24.814 1.69306 29.375 4.79564 32.9947L0.457675 37.3327C-0.152558 37.9429 -0.152558 38.9322 0.457675 39.5423C0.762753 39.8474 1.1626 40 1.56252 40C1.96244 40 2.36228 39.8474 2.66736 39.5423L39.5423 2.66736C40.1526 2.05721 40.1526 1.06783 39.5423 0.457676ZM3.12502 20C3.12502 10.6951 10.6951 3.12502 20 3.12502C23.9756 3.12502 27.7524 4.49744 30.7763 7.014L7.01392 30.7764C4.49689 27.753 3.12502 23.9792 3.12502 20ZM38.0803 11.4399C39.3541 14.126 40 17.006 40 20C40 23.9477 38.8282 27.787 36.6114 31.1028C36.3101 31.5534 35.8152 31.797 35.311 31.797C35.0125 31.797 34.7108 31.7117 34.444 31.5334C33.7265 31.0538 33.5338 30.0834 34.0134 29.366C35.8855 26.5659 36.875 23.3273 36.875 20C36.875 17.4728 36.3305 15.0433 35.2567 12.7789C34.8869 11.9992 35.2193 11.0674 35.999 10.6976C36.7788 10.3277 37.7105 10.6602 38.0803 11.4399ZM30.8755 34.9718C31.3226 35.7098 31.0866 36.6707 30.3485 37.1177C27.2357 39.0034 23.6573 40 20 40C17.0712 40 14.2482 39.3809 11.6095 38.1598C10.8263 37.7973 10.4852 36.8687 10.8477 36.0855C11.2101 35.3024 12.1388 34.9615 12.9219 35.3238C15.1463 36.3531 17.5277 36.875 20 36.875C23.0863 36.875 26.1049 36.0347 28.7295 34.4448C29.4675 33.9977 30.4283 34.2336 30.8755 34.9718Z" fill="#D53B55"/>
</svg>
